PathFileType	4	(X/Y/Z)	D:\TRACE\spotREDO_2-26-24\spot_Both_Motion_3_9-v60.trc
DataRate	CameraRate	NumFrames	NumMarkers	Units	OrigDataRate	OrigDataStartFrame	OrigNumFrames
100.00	100.00	      35	9	mm	100.00	1	      7000
Frame#	Time	front left toe			Front right toe			aft left toe			aft right toe			Arm			FL body			FR body			AL Body			AR Body			
		X1	Y1	Z1	X2	Y2	Z2	X3	Y3	Z3	X4	Y4	Z4	X5	Y5	Z5	X6	Y6	Z6	X7	Y7	Z7	X8	Y8	Z8	X9	Y9	Z9	

1	0.000	-239.43266	180.88141	-162.98183	259.75507	64.29705	-195.55923	-243.68314	-42.89650	410.20929	262.07242	-38.44055	406.90985	8.35268	953.99957	-350.96069	-66.82335	620.31683	-253.71719	88.97099	626.26276	-257.36569	-48.69361	468.13977	617.12494	98.37819	462.87329	614.57404	
2	0.010	-237.55087	183.16757	-160.98097	259.45563	64.26623	-195.65096	-243.70790	-43.01079	410.23813	262.02676	-38.52240	406.88873	7.79231	954.25958	-351.41846	-67.30325	620.47211	-253.14813	88.43896	626.47510	-256.42914	-49.61862	467.96600	617.74902	98.06142	462.81656	615.60199	
3	0.020	-234.79555	181.88086	-157.72180	259.35410	64.33819	-195.67322	-243.79292	-43.13800	410.33887	262.00162	-38.48415	406.96841	7.20983	954.45807	-352.07315	-68.09206	620.49109	-252.07613	87.80407	626.58325	-255.65549	-50.14136	467.89011	618.52991	97.57700	463.20389	617.10272	
4	0.030	-231.69598	179.53149	-155.17038	259.45444	64.42567	-195.52919	-243.75534	-43.21074	410.37195	261.98566	-38.39483	407.05008	6.36327	954.74860	-352.64258	-68.58207	620.53442	-251.59438	87.24430	626.83954	-255.06129	-50.79364	468.00677	619.30994	97.36572	462.95200	617.15271	
5	0.040	-229.88567	176.61307	-151.16418	259.41531	64.42643	-195.57428	-243.86226	-43.27919	410.38586	261.95581	-38.31144	407.10452	5.91608	955.17157	-353.05991	-69.42370	620.59338	-251.08208	86.42496	627.07501	-254.28813	-51.70087	467.98328	619.67206	96.92181	462.95557	617.76093	
6	0.050	-227.39401	175.29692	-147.91954	259.53815	64.43109	-195.51961	-243.86032	-43.36843	410.43933	261.92719	-38.04118	407.14594	5.57238	955.48798	-353.68292	-70.05105	620.46436	-250.45802	85.66977	627.19153	-253.82216	-52.35337	467.87958	620.35339	96.63996	463.54916	618.41473	
7	0.060	-224.28033	173.50548	-144.00822	259.44650	64.45566	-195.53539	-243.92566	-43.42231	410.46368	261.86655	-37.92097	407.16425	5.05221	955.85553	-354.53476	-70.95809	620.25586	-249.96150	84.67678	627.27216	-253.26160	-53.52875	467.80655	620.71136	92.94189	463.79431	618.94446	
8	0.070	-222.84674	172.61096	-140.21553	259.33194	64.52448	-195.57765	-243.97368	-43.51022	410.48438	261.81885	-37.94922	407.18927	5.04617	956.13019	-355.05286	-72.02814	620.09973	-249.51402	83.55866	627.39246	-252.89656	-54.30585	467.66803	621.24982	91.87455	463.76254	619.24524	
9	0.080	-220.93166	171.65166	-136.70328	259.18503	64.69454	-195.65564	-243.92616	-43.56124	410.47787	261.85196	-37.86914	407.15768	4.94791	956.40717	-355.63303	-73.24200	620.21423	-249.27400	82.21402	627.82220	-252.44205	-54.93536	467.60437	621.64551	90.73364	463.76797	619.65210	
10	0.090	-218.62595	170.77574	-133.12552	258.91943	64.68297	-195.76958	-243.94829	-43.59036	410.52869	261.76971	-37.82809	407.19281	4.86518	956.81207	-356.10095	-74.74143	620.20184	-248.72249	81.07038	627.76794	-252.07112	-56.04100	467.71201	622.02094	90.39958	463.87054	620.13940	
11	0.100	-216.46570	169.15176	-130.07996	258.91388	64.85016	-195.73097	-244.03560	-43.54017	410.53415	261.84839	-37.77679	407.23941	4.76294	957.18445	-356.49152	-75.93406	620.13116	-248.36794	79.81688	627.72083	-251.89987	-56.80444	467.82678	622.35242	89.88175	463.98779	620.37946	
12	0.110	-214.36133	165.34448	-128.65340	258.80524	65.05297	-195.71576	-244.15462	-43.56974	410.56616	261.77078	-37.78511	407.17709	4.50375	957.67804	-357.18423	-77.39603	620.10895	-248.02164	78.37952	627.62769	-251.48685	-58.02407	467.74976	622.71722	89.01121	464.17322	620.56335	
13	0.120	-212.67546	159.19576	-127.00323	258.63940	65.12290	-195.72189	-244.27138	-43.72523	410.56439	261.63541	-37.81415	407.14679	4.08734	958.03973	-357.72983	-78.47022	620.08191	-247.84492	77.25828	627.50189	-251.41396	-59.18838	467.95279	623.08820	88.04217	464.22525	620.95160	
14	0.130	-210.72769	150.50639	-125.04501	258.66031	65.18792	-195.65134	-244.34180	-43.86624	410.64011	261.58228	-37.83368	407.16507	3.64002	958.45850	-358.25146	-80.00376	620.07794	-247.48718	75.83643	627.57104	-251.16628	-60.39212	468.15594	623.36548	86.96011	464.37524	621.10004	
15	0.140	-208.64609	140.21693	-123.38501	258.71796	65.22799	-195.54507	-244.44485	-43.95921	410.64365	261.61673	-37.72844	407.21832	3.62351	958.85974	-358.58417	-81.32536	620.07648	-247.53358	74.41351	627.60541	-251.00174	-61.74414	468.34787	623.36371	85.36475	464.33505	621.10034	
16	0.150	-206.75757	128.43095	-121.33156	259.86206	66.21201	-194.86626	-244.53566	-43.98724	410.65466	261.56360	-37.69618	407.20267	3.35892	959.22430	-359.04572	-82.55035	620.18079	-247.39871	73.16505	627.68658	-250.79686	-63.20220	469.00681	623.66931	84.12611	464.78000	621.38489	
17	0.160	-205.44604	117.03943	-118.86256	258.70520	65.96178	-195.17352	-244.60434	-44.04097	410.67126	261.30710	-37.63043	407.11774	2.86982	959.69946	-359.72833	-84.13271	620.11011	-247.31519	72.01912	627.70581	-250.64241	-64.73462	469.07587	623.81720	82.58608	464.92865	621.54993	
18	0.170	-203.51974	106.42488	-116.59256	258.74091	66.05034	-195.14378	-244.65724	-44.17492	410.67450	261.26419	-37.54672	407.12363	2.54723	960.00061	-360.26083	-85.59626	619.86151	-247.49409	70.17921	627.63293	-250.82187	-66.41542	469.29456	623.83636	80.57991	465.67419	622.40649	
19	0.180	-202.23907	95.66222	-114.29527	258.58093	65.58804	-195.47427	-244.73381	-44.26464	410.63007	261.21545	-37.47299	407.16193	2.44944	960.41882	-360.63611	-87.27791	620.01709	-247.38138	68.75965	627.51019	-250.83305	-68.16022	469.45847	623.79132	79.13421	465.25711	621.48669	
20	0.190	-201.75142	85.99691	-112.89590	259.93884	66.86695	-194.32042	-244.77798	-44.26553	410.59625	261.02603	-37.46872	407.11765	2.01898	960.71228	-361.16507	-88.81585	619.73132	-247.48218	66.78255	627.74445	-250.96783	-70.26098	469.59930	623.73639	77.18724	465.60764	621.28528	
21	0.200	-200.84412	75.59026	-112.33733	259.83423	66.93468	-194.41643	-244.88985	-44.26151	410.63791	260.98438	-37.30552	407.13788	1.60733	961.03717	-361.79074	-91.00139	619.80554	-247.81696	64.85982	627.55206	-251.24348	-71.95113	469.72443	623.59882	75.52970	466.01474	621.47784	
22	0.210	-200.50043	65.44186	-112.00666	259.62527	67.05878	-194.56314	-245.04434	-44.38964	410.62604	260.82907	-37.14619	407.10892	1.51283	961.35376	-362.34268	-92.57631	619.74951	-248.07549	63.39843	627.41003	-251.31743	-73.61232	469.82675	623.36761	73.83696	466.12677	621.28595	
23	0.220	-199.67236	55.07471	-111.64644	259.37704	66.86275	-195.02356	-245.09576	-44.51460	410.64621	260.65405	-37.24853	407.00339	1.40219	961.63898	-362.87854	-94.83385	619.84766	-248.28940	60.96073	627.39453	-251.85568	-76.04545	470.01309	623.05804	71.51457	466.18179	620.87408	
24	0.230	-199.43797	49.07772	-113.17873	259.29880	66.84829	-195.01030	-245.07442	-44.56859	410.62848	260.60587	-37.08780	406.95361	1.18844	961.92963	-363.38004	-96.85374	619.91736	-248.67984	59.12142	627.01068	-252.05756	-77.98624	470.17554	622.67719	69.52426	466.12134	620.32825	
25	0.240	-201.01486	48.24910	-112.12175	259.10580	66.94714	-195.27406	-245.09105	-44.81485	410.48987	260.42737	-37.43991	406.82828	1.00020	962.20477	-363.83160	-99.10336	620.88959	-248.96956	56.97052	627.52911	-252.56514	-80.45609	470.28497	622.27045	67.03695	465.93210	620.64404	
26	0.250	-201.02338	47.66443	-111.55171	258.03674	68.33237	-196.39249	-245.73969	-45.73066	410.41788	259.81754	-36.38054	405.91351	1.09054	962.32550	-363.91718	-101.68712	622.10718	-249.51303	54.45642	628.62970	-252.92374	-82.56596	470.30295	621.64331	64.99557	465.76312	619.27759	
27	0.260	-201.24329	47.73368	-111.77237	256.81558	68.59271	-196.18459	-246.35022	-46.09822	410.66495	258.19937	-35.56743	406.47931	1.45889	962.76324	-363.97559	-104.11678	623.77423	-249.72375	52.11173	629.59674	-253.47293	-84.91728	471.19241	621.11450	63.08568	465.43460	618.48688	
28	0.270	-201.52013	47.66279	-111.73679	256.30533	69.02018	-196.19839	-246.72934	-45.93559	410.37372	257.66559	-35.52457	406.54004	2.02696	963.43921	-364.03806	-106.23156	625.50342	-249.94891	50.04811	630.58728	-253.98846	-86.84426	471.98578	620.80182	60.66870	465.82272	617.94476	
29	0.280	-201.34818	47.88825	-112.02674	256.29358	68.98615	-195.89273	-246.67216	-45.84073	410.31741	257.48544	-35.37221	406.38358	2.89185	963.85657	-364.21994	-108.20037	626.96490	-250.27327	47.94860	631.74121	-254.25972	-89.19847	472.97449	620.33740	58.17294	466.87030	617.73871	
30	0.290	-201.49472	47.84141	-112.19195	256.17569	69.05830	-196.05287	-247.02118	-45.85095	410.01779	257.35068	-35.26516	406.45065	2.69489	964.54120	-364.92529	-109.35686	628.52527	-250.53378	46.67383	632.91272	-254.39369	-91.14605	474.14178	620.10284	56.25626	467.39505	617.26459	
31	0.300	-201.55421	47.64333	-112.40925	256.25250	69.13745	-195.99271	-247.21774	-45.79946	409.97473	257.03574	-35.40025	406.44232	2.34917	965.10077	-365.55756	-110.73209	630.19476	-250.89165	45.54430	634.12946	-254.61308	-93.14479	475.24167	619.56787	54.77975	468.32428	617.19708	
32	0.310	-201.44107	47.71383	-112.48045	256.30493	69.26355	-196.04150	-247.30820	-45.89009	409.89267	256.93808	-35.32822	406.30334	1.75404	965.59418	-366.68607	-111.95639	631.39850	-251.01024	44.29235	635.52081	-254.94376	-95.00594	476.15195	619.14899	52.61939	469.51929	616.70581	
33	0.320	-201.54546	47.69451	-112.60667	256.23395	69.25626	-196.17389	-247.37047	-46.04182	409.87247	256.95782	-35.24432	406.31848	1.04944	966.23419	-367.46945	-112.82051	633.15375	-251.55067	43.55693	636.93250	-255.00638	-96.62662	477.42749	618.90576	50.95625	470.42996	616.42993	
34	0.330	-201.68732	47.62564	-112.75065	256.20303	69.28646	-196.19319	-247.44771	-46.05797	409.76315	256.90768	-35.27753	406.23502	-0.27409	967.17151	-368.58368	-113.46252	634.11084	-251.94070	42.63720	638.16888	-255.25064	-97.27241	478.60220	618.48376	49.94100	471.84680	616.29883	
35	0.340	-201.53021	47.54922	-112.81673	256.20343	69.41644	-196.29544	-247.35579	-46.38601	409.74832	256.92007	-35.05228	406.14999	-1.18568	967.69275	-369.62283	-114.51128	635.43042	-252.15991	41.95417	639.56256	-255.54695	-98.98471	479.88010	618.18353	48.75583	473.33167	616.23151	
